<svg width="24" height="24" viewBox="0 0 24 24" fill="none" xmlns="http://www.w3.org/2000/svg">
<g clip-path="url(#clip0_265_1697)">
<path d="M12.3707 7.62097C12.271 7.72215 12.1348 7.77912 11.9927 7.77912C11.8506 7.77912 11.7145 7.72215 11.6147 7.62097L11.4638 7.46896C11.2553 7.25807 11.2553 6.91872 11.4638 6.70783L13.427 4.729C13.5267 4.62782 13.6629 4.57086 13.805 4.57086C13.9471 4.57086 14.0832 4.62782 14.183 4.729L14.3339 4.88101C14.5424 5.0919 14.5424 5.43125 14.3339 5.64214L12.3707 7.62097ZM9.81194 13.1419C9.17248 13.3311 8.57971 13.6521 8.07179 14.0842C6.42419 13.9037 5.15936 12.5403 5.10271 10.8838C5.04606 9.2273 6.2148 7.78069 7.84622 7.48801C9.47764 7.19533 11.0764 8.14545 11.5991 9.71833C10.6604 10.6449 10.0355 11.8421 9.81194 13.1419ZM8.48895 6.57472H8.21894C8.08485 6.57472 7.95625 6.52143 7.86145 6.42659C7.76665 6.33174 7.71343 6.20311 7.7135 6.06901V3.20566C7.71336 2.92662 7.93936 2.70025 8.2184 2.69995H8.4884C8.62255 2.69988 8.75122 2.75314 8.84608 2.84799C8.94093 2.94285 8.99419 3.07152 8.99411 3.20566V6.06901C8.99419 6.20316 8.94093 6.33183 8.84608 6.42668C8.75122 6.52154 8.62309 6.57479 8.48895 6.57472ZM5.0783 7.62097C4.97804 7.72193 4.84164 7.77871 4.69936 7.77871C4.55708 7.77871 4.42067 7.72193 4.32041 7.62097L2.34941 5.64214C2.14022 5.43155 2.14022 5.0916 2.34941 4.88101L2.50115 4.729C2.60137 4.62806 2.73773 4.57129 2.87996 4.57129C3.0222 4.57129 3.15856 4.62806 3.25877 4.729L5.22977 6.70783C5.43897 6.91842 5.43897 7.25837 5.22977 7.46896L5.0783 7.62097ZM4.09578 10.557V10.773C4.09637 11.0694 3.85658 11.3103 3.56009 11.3111H0.773965C0.477476 11.3103 0.237687 11.0694 0.238283 10.773V10.557C0.237926 10.4145 0.294171 10.2778 0.394638 10.1769C0.495106 10.076 0.63156 10.0191 0.773965 10.0188H3.55928C3.70183 10.0189 3.83849 10.0757 3.93913 10.1766C4.03978 10.2776 4.09613 10.4144 4.09578 10.557ZM4.31987 13.7084C4.42021 13.6076 4.55658 13.5509 4.69882 13.5509C4.84106 13.5509 4.97743 13.6076 5.07776 13.7084L5.22923 13.8607C5.43843 14.0713 5.43843 14.4112 5.22923 14.6218L3.25823 16.6006C3.15802 16.7016 3.02166 16.7583 2.87942 16.7583C2.73719 16.7583 2.60083 16.7016 2.50061 16.6006L2.34887 16.4484C2.13968 16.2378 2.13968 15.8978 2.34887 15.6872L4.31987 13.7084Z" fill="#FFCD00"/>
<path d="M5.27199 20.287H22.282C22.282 20.287 26.332 17.3845 21.742 14.887C21.742 14.887 21.3707 10.027 16.612 10.027C16.612 10.027 11.6845 9.3183 11.212 15.157C11.212 15.157 7.53405 14.8465 7.43199 18.397C4.99119 18.4105 4.64775 20.287 5.27199 20.287Z" fill="#CCDCF5"/>
</g>
<defs>
<clipPath id="clip0_265_1697">
<rect width="24" height="24" fill="white"/>
</clipPath>
</defs>
</svg>
