<svg width="24" height="24" viewBox="0 0 24 24" fill="none" xmlns="http://www.w3.org/2000/svg">
<g clip-path="url(#clip0_265_1710)">
<path d="M22.8001 15.8999C22.8001 18.0539 21.054 19.7999 18.9001 19.7999H5.70011C5.56811 19.7999 5.43011 19.7939 5.30411 19.7819C3.07309 19.5813 1.32931 17.7704 1.21316 15.5334C1.09701 13.2964 2.64386 11.3145 4.84211 10.8839C4.81579 10.6569 4.80177 10.4285 4.80011 10.1999C4.80981 7.19669 7.0385 4.66323 10.016 4.27078C12.9935 3.87832 15.8026 5.74778 16.5901 8.64594C16.9378 8.4843 17.3166 8.40035 17.7001 8.39994C18.4165 8.39899 19.1038 8.68314 19.6104 9.1897C20.1169 9.69625 20.4011 10.3836 20.4001 11.0999C20.3991 11.4834 20.3152 11.862 20.1541 12.2099C21.735 12.7468 22.7989 14.2304 22.8001 15.8999Z" fill="#BAC9DF"/>
</g>
<defs>
<clipPath id="clip0_265_1710">
<rect width="24" height="24" fill="white"/>
</clipPath>
</defs>
</svg>
