<svg width="24" height="24" viewBox="0 0 24 24" fill="none" xmlns="http://www.w3.org/2000/svg">
<path d="M17.8132 5.7703C17.6807 4.46291 17.0677 3.25122 16.0929 2.36994C15.1181 1.48865 13.851 1.00049 12.5369 1C11.2228 0.999511 9.95525 1.48673 8.97982 2.36729C8.00439 3.24785 7.39046 4.45907 7.25695 5.76637H7.09317C6.70071 5.76634 6.30956 5.8119 5.92762 5.90215C3.68348 6.43239 2 8.4588 2 10.8595C2 13.6607 4.29201 15.9527 7.09317 15.9527H17.6282C20.4373 15.9439 22.7122 13.6686 22.7205 10.8595C22.7205 8.12073 20.5293 5.869 17.8132 5.7703Z" fill="#C9D7EC"/>
<path d="M3.16041 17.3796H6.50834C7.1576 17.3796 7.48223 17.7043 7.48223 18.3535C7.48223 19.0028 7.1576 19.3274 6.50834 19.3274H3.16041C2.51115 19.3274 2.18652 19.0028 2.18652 18.3535C2.18652 17.7043 2.51115 17.3796 3.16041 17.3796Z" fill="#CCDCF5"/>
<path d="M9.30787 17.3796H9.91606C10.5653 17.3796 10.8899 17.7043 10.8899 18.3535C10.8899 19.0028 10.5653 19.3274 9.91606 19.3274H9.30787C8.65861 19.3274 8.33398 19.0028 8.33398 18.3535C8.33398 17.7043 8.65861 17.3796 9.30787 17.3796Z" fill="#CCDCF5"/>
<path d="M13.2844 17.3796H16.6324C17.2816 17.3796 17.6063 17.7043 17.6063 18.3535C17.6063 19.0028 17.2816 19.3274 16.6324 19.3274H13.2844C12.6352 19.3274 12.3105 19.0028 12.3105 18.3535C12.3105 17.7043 12.6352 17.3796 13.2844 17.3796Z" fill="#CCDCF5"/>
<path d="M19.4319 17.3796H20.0401C20.6893 17.3796 21.014 17.7043 21.014 18.3535C21.014 19.0028 20.6893 19.3274 20.0401 19.3274H19.4319C18.7826 19.3274 18.458 19.0028 18.458 18.3535C18.458 17.7043 18.7826 17.3796 19.4319 17.3796Z" fill="#CCDCF5"/>
<path d="M20.0406 23H16.6926C16.0434 23 15.7188 22.6754 15.7188 22.0261C15.7187 21.3769 16.0434 21.0522 16.6926 21.0522H20.0406C20.6898 21.0522 21.0145 21.3769 21.0145 22.0261C21.0145 22.6754 20.6898 23 20.0406 23Z" fill="#CCDCF5"/>
<path d="M13.8926 23H13.2844C12.6352 23 12.3105 22.6754 12.3105 22.0261C12.3105 21.3769 12.6352 21.0522 13.2844 21.0522H13.8926C14.5419 21.0522 14.8665 21.3769 14.8665 22.0261C14.8665 22.6754 14.5419 23 13.8926 23Z" fill="#CCDCF5"/>
<path d="M9.91654 23H6.56862C5.91936 23 5.59473 22.6754 5.59473 22.0261C5.59473 21.3769 5.91936 21.0522 6.56862 21.0522H9.91654C10.5658 21.0522 10.8904 21.3769 10.8904 22.0261C10.8904 22.6754 10.5658 23 9.91654 23Z" fill="#CCDCF5"/>
<path d="M3.7686 23H3.16041C2.51115 23 2.18652 22.6754 2.18652 22.0261C2.18652 21.3769 2.51115 21.0522 3.16041 21.0522H3.7686C4.41786 21.0522 4.74249 21.3769 4.74249 22.0261C4.74249 22.6754 4.41786 23 3.7686 23Z" fill="#CCDCF5"/>
</svg>
