<svg width="24" height="24" viewBox="0 0 24 24" fill="none" xmlns="http://www.w3.org/2000/svg">
<g clip-path="url(#clip0_265_1701)">
<path d="M6.44657 16.9412C5.83979 17.5762 5.04956 18.5216 4.852 19.2695C4.64034 20.1444 5.09189 21.0334 5.8539 21.2592C6.6159 21.485 7.42024 20.9629 7.63191 20.088C7.81535 19.3401 7.56135 18.0842 7.33557 17.2093C7.23679 16.7718 6.7429 16.6307 6.44657 16.9412Z" fill="#7DAFFF"/>
<path d="M16.2532 16.9695C15.6464 17.6045 14.8562 18.5499 14.6586 19.2978C14.447 20.1727 14.8985 21.0617 15.6605 21.2875C16.4225 21.5133 17.2269 20.9912 17.4385 20.1163C17.622 19.3684 17.368 18.1125 17.1422 17.2376C17.0434 16.8142 16.5495 16.6731 16.2532 16.9695Z" fill="#7DAFFF"/>
<path d="M11.1734 19.9045C10.6654 20.4408 10.0021 21.2169 9.84693 21.8378C9.66348 22.5574 10.0445 23.3053 10.6795 23.4888C11.3145 23.6722 11.9918 23.2348 12.1612 22.5151C12.3164 21.8942 12.1047 20.85 11.9072 20.1162C11.8366 19.7634 11.4274 19.6505 11.1734 19.9045Z" fill="#7DAFFF"/>
<path d="M18.1573 7.4187C17.4376 7.4187 16.7744 7.68681 16.21 8.03959C16.21 7.95492 16.2241 7.88437 16.2241 7.81381C16.2241 4.66701 13.8393 2 10.7913 2C8.26537 2 6.07813 3.84857 5.44313 6.2898C3.46756 6.78369 2 8.64637 2 10.8618C2 13.2325 3.55223 15.2363 5.73947 15.5609H8.64637C8.94271 14.6718 9.63415 13.6558 10.7489 12.4987C11.1864 12.0472 11.7649 11.7932 12.3858 11.7932C13.416 11.7932 14.3332 12.5128 14.6013 13.5288C14.7988 14.2908 14.94 14.9682 15.0105 15.5609H18.5524C20.4998 15.3633 22.052 13.6135 22.052 11.5251C22.0379 9.28137 20.3022 7.4187 18.1573 7.4187Z" fill="#BAC9DF"/>
<path d="M11.8436 13.6545C11.2676 14.2545 10.5236 15.1425 10.3436 15.8505C10.1396 16.6665 10.5716 17.5065 11.2916 17.7225C12.0116 17.9385 12.7676 17.4345 12.9716 16.6185C13.1516 15.9105 12.9116 14.7345 12.6836 13.9065C12.5756 13.4985 12.1196 13.3665 11.8436 13.6545Z" fill="#7DAFFF"/>
</g>
<defs>
<clipPath id="clip0_265_1701">
<rect width="24" height="24" fill="white"/>
</clipPath>
</defs>
</svg>
