<svg width="24" height="24" viewBox="0 0 24 24" fill="none" xmlns="http://www.w3.org/2000/svg">
<g clip-path="url(#clip0_265_1715)">
<path d="M21.6793 17.0469L18.7306 15.3448L21.4344 14.5003C21.8243 14.3745 22.0398 13.9577 21.917 13.5667C21.8594 13.379 21.7293 13.2221 21.5555 13.1306C21.3818 13.0391 21.1787 13.0207 20.9913 13.0795L16.9797 14.3333L13.6395 12.406L16.913 10.517L20.9913 11.788C21.3826 11.9088 21.7981 11.6916 21.9223 11.3014C22.0438 10.9108 21.8265 10.4955 21.4364 10.3724L21.4344 10.3718L18.664 9.50488L21.6542 7.77964C22.0062 7.57761 22.1296 7.12666 21.9296 6.77144L21.9243 6.7622C21.719 6.4075 21.2654 6.28583 20.9101 6.49018L17.9615 8.19362L18.5808 5.43113C18.6637 5.02676 18.4044 4.63136 18.0004 4.5464C17.6071 4.46645 17.2214 4.7131 17.1289 5.10365L16.2105 9.20513L12.8755 11.1304V7.36369L16.0117 4.47575C16.3119 4.20016 16.3343 3.73432 16.0619 3.43123L16.0553 3.42397C15.7773 3.12187 15.307 3.10236 15.0049 3.38039L12.8755 5.342V2.24476C12.8759 2.04759 12.7979 1.85835 12.6587 1.71868C12.5196 1.57901 12.3306 1.50035 12.1334 1.5H12.1314C11.7207 1.5 11.3877 1.83274 11.3873 2.24344V5.30767L9.29765 3.38171C8.99423 3.12441 8.54215 3.151 8.27099 3.44211C7.99983 3.73322 8.00534 4.18604 8.2835 4.47047L8.29076 4.47707L11.3893 7.32935V11.1073L8.10524 9.21239L7.18683 5.11289C7.14142 4.92024 7.021 4.75368 6.85229 4.65018C6.68358 4.54667 6.48054 4.51478 6.28822 4.56158C5.89813 4.65853 5.65401 5.04599 5.73493 5.43972L6.35425 8.20088L3.39104 6.4915C3.03503 6.28708 2.58075 6.40899 2.37492 6.76418C2.17118 7.11674 2.28927 7.56761 2.63968 7.77502L2.64694 7.77964L5.65174 9.51412L2.88133 10.3791C2.49244 10.5019 2.27588 10.9205 2.39869 11.3126C2.52083 11.7048 2.93547 11.9227 3.32436 11.7993L7.40273 10.5243L10.6637 12.406L7.33604 14.3241L3.32436 13.0709C3.13726 13.0119 2.93436 13.0301 2.76069 13.1213C2.58703 13.2125 2.45696 13.3693 2.39935 13.5568C2.27619 13.9473 2.49156 14.3639 2.88133 14.4891L5.58506 15.3336L2.62185 17.0449C2.451 17.1434 2.32633 17.3058 2.2753 17.4963C2.22427 17.6868 2.25109 17.8897 2.34983 18.0604C2.44793 18.2318 2.61043 18.357 2.80123 18.4081C2.99203 18.4592 3.19533 18.4319 3.36595 18.3324L6.37076 16.598L5.73493 19.4298C5.68591 19.6501 5.73944 19.8807 5.88048 20.0569C6.02152 20.2331 6.23485 20.3359 6.46055 20.3363C6.80322 20.3363 7.10958 20.0999 7.18683 19.7546L8.12174 15.5884L11.386 13.7028V17.5573L8.28746 20.4089C7.98638 20.6875 7.96776 21.1572 8.24587 21.4587C8.37883 21.6048 8.56468 21.6915 8.762 21.6997C8.95933 21.7079 9.15173 21.6368 9.29633 21.5023L11.386 19.577V22.5396C11.3857 22.8054 11.5272 23.0512 11.7572 23.1845C11.9873 23.3177 12.2709 23.3181 12.5013 23.1854C12.7317 23.0528 12.8739 22.8074 12.8742 22.5415V19.5427L15.0029 21.5043C15.305 21.7753 15.7686 21.7542 16.0449 21.4569C16.3211 21.1595 16.3082 20.6956 16.0157 20.4142L16.0104 20.4089L12.8742 17.521V13.681L16.192 15.597L17.1289 19.7658C17.22 20.1686 17.6175 20.4208 18.0169 20.329C18.4157 20.2406 18.6673 19.8431 18.5795 19.4417L18.5788 19.439L17.943 16.6092L20.9332 18.3344C21.1039 18.4337 21.3072 18.4609 21.4979 18.4098C21.6886 18.3587 21.8511 18.2337 21.9494 18.0624C22.1541 17.7098 22.0365 17.2569 21.6873 17.0509L21.6773 17.0449L21.6793 17.0469Z" fill="#7BB3FF"/>
</g>
<defs>
<clipPath id="clip0_265_1715">
<rect width="24" height="24" fill="white"/>
</clipPath>
</defs>
</svg>
