<svg width="24" height="24" viewBox="0 0 24 24" fill="none" xmlns="http://www.w3.org/2000/svg">
<path d="M7.2959 11.9929C7.2959 13.6718 8.19156 15.2231 9.64551 16.0626C11.0995 16.902 12.8908 16.902 14.3447 16.0626C15.7987 15.2231 16.6943 13.6718 16.6943 11.9929C16.6943 10.3141 15.7987 8.76271 14.3447 7.92328C12.8908 7.08384 11.0995 7.08384 9.64551 7.92328C8.19156 8.76271 7.2959 10.3141 7.2959 11.9929Z" fill="#FFCD00"/>
<path d="M12.0002 5.84294H11.9908C11.6111 5.84294 11.2994 5.53123 11.2994 5.15154V2.35779C11.2994 1.9781 11.6111 1.66638 11.9908 1.66638H12.0002C12.3799 1.66638 12.6916 1.9781 12.6916 2.35779V5.15388C12.6916 5.53357 12.3799 5.84294 12.0002 5.84294ZM7.6502 7.6406L7.64316 7.64763C7.37363 7.91716 6.93535 7.91716 6.66582 7.64763L4.69004 5.67185C4.42051 5.40232 4.42051 4.96404 4.69004 4.69451L4.69707 4.68748C4.9666 4.41794 5.40488 4.41794 5.67441 4.68748L7.6502 6.66326C7.91973 6.93279 7.91973 7.37107 7.6502 7.6406ZM5.84551 11.9883V11.9976C5.84551 12.3773 5.53379 12.689 5.1541 12.689H2.36035C1.98066 12.689 1.66895 12.3773 1.66895 11.9976V11.9883C1.66895 11.6086 1.98066 11.2969 2.36035 11.2969H5.15645C5.53613 11.2969 5.84551 11.6086 5.84551 11.9883ZM7.64316 16.3383L7.6502 16.3453C7.91973 16.6148 7.91973 17.0531 7.6502 17.3226L5.67441 19.2984C5.40488 19.5679 4.9666 19.5679 4.69707 19.2984L4.69004 19.2914C4.42051 19.0218 4.42051 18.5836 4.69004 18.314L6.66582 16.3383C6.93535 16.0687 7.37363 16.0687 7.64316 16.3383ZM11.9908 18.1429H12.0002C12.3799 18.1429 12.6916 18.4547 12.6916 18.8343V21.6304C12.6916 22.0101 12.3799 22.3218 12.0002 22.3218H11.9908C11.6111 22.3218 11.2994 22.0101 11.2994 21.6304V18.8343C11.2994 18.4523 11.6111 18.1429 11.9908 18.1429ZM16.3408 16.3453L16.3479 16.3383C16.6174 16.0687 17.0557 16.0687 17.3252 16.3383L19.301 18.314C19.5705 18.5836 19.5705 19.0218 19.301 19.2914L19.2939 19.2984C19.0244 19.5679 18.5861 19.5679 18.3166 19.2984L16.3408 17.3226C16.0713 17.0531 16.0713 16.6148 16.3408 16.3453ZM18.1455 11.9976V11.9883C18.1455 11.6086 18.4572 11.2969 18.8369 11.2969H21.633C22.0127 11.2969 22.3244 11.6086 22.3244 11.9883V11.9976C22.3244 12.3773 22.0127 12.689 21.633 12.689H18.8369C18.4549 12.689 18.1455 12.3773 18.1455 11.9976ZM16.3479 7.64763L16.3408 7.6406C16.0713 7.37107 16.0713 6.93279 16.3408 6.66326L18.3166 4.68748C18.5861 4.41794 19.0244 4.41794 19.2939 4.68748L19.301 4.69451C19.5705 4.96404 19.5705 5.40232 19.301 5.67185L17.3252 7.64763C17.0557 7.91716 16.6174 7.91716 16.3479 7.64763Z" fill="#FFCD00"/>
</svg>
