<svg width="24" height="24" viewBox="0 0 24 24" fill="none" xmlns="http://www.w3.org/2000/svg">
<g clip-path="url(#clip0_265_1705)">
<path d="M18.2542 6.97841C17.534 6.97841 16.8703 7.24651 16.3055 7.59927C16.3055 7.51461 16.3196 7.44405 16.3196 7.3735C16.3196 4.22691 13.9331 1.56006 10.8829 1.56006C8.35527 1.56006 6.16649 3.40851 5.53104 5.84959C3.55409 6.34345 2.09961 8.20601 2.09961 10.4213C2.09961 12.7919 3.65293 14.7955 5.84171 15.1201H7.32443L13.1423 11.6489C13.453 11.4655 13.7919 11.3667 14.1449 11.3667C14.9075 11.3667 15.5994 11.8182 15.9242 12.5238C16.2349 13.2152 16.1219 14.0336 15.6135 14.6121L15.1617 15.1201H18.6496C20.5983 14.9225 22.1516 13.1728 22.1516 11.0845C22.1516 8.84097 20.4147 6.97841 18.2542 6.97841Z" fill="#BAC9DF"/>
<path d="M14.3734 12.9266L8.81848 16.8198C8.68477 16.9196 8.67262 17.1478 8.80632 17.2619L11.1523 19.2299C11.2495 19.3154 11.2738 19.458 11.2131 19.5721L9.47486 22.9947C9.35331 23.2372 9.60857 23.5081 9.80305 23.337L14.1911 19.5151C14.3005 19.4153 14.3126 19.2156 14.2032 19.1158L12.2098 17.0052C12.1247 16.9054 12.1125 16.7485 12.1855 16.6344L14.653 13.3259C14.8232 13.0977 14.5922 12.784 14.3734 12.9266Z" fill="#FFCD00"/>
<path d="M16.2408 19.0457C16.1258 19.6216 16.3655 20.2097 16.7586 20.3567C17.1518 20.5038 17.5737 20.1607 17.6792 19.5848C17.7751 19.0947 17.6408 18.2615 17.5258 17.6856C17.4778 17.3915 17.2189 17.2935 17.0655 17.5018C16.7491 17.9184 16.3367 18.5433 16.2408 19.0457Z" fill="#7DAFFF"/>
<path d="M4.24083 19.0457C4.12576 19.6216 4.36549 20.2097 4.75864 20.3567C5.15179 20.5038 5.57371 20.1607 5.67919 19.5848C5.77508 19.0947 5.64084 18.2615 5.52577 17.6856C5.46823 17.3915 5.21892 17.2935 5.06549 17.5018C4.74905 17.9184 4.33672 18.5433 4.24083 19.0457Z" fill="#7DAFFF"/>
</g>
<defs>
<clipPath id="clip0_265_1705">
<rect width="24" height="24" fill="white"/>
</clipPath>
</defs>
</svg>
