<svg width="24" height="24" viewBox="0 0 24 24" fill="none" xmlns="http://www.w3.org/2000/svg">
<g clip-path="url(#clip0_265_1717)">
<path d="M17.393 11.5579C17.3148 11.5579 17.2396 11.5679 17.1621 11.5729C17.1567 11.5729 17.1537 11.5662 17.1475 11.5662H1.43573C1.3053 11.5662 1.2002 11.6813 1.2002 11.8222V13.1337C1.2002 13.2754 1.30607 13.3897 1.43573 13.3897H13.9736L13.9705 13.393H17.3593C17.3708 13.393 17.3808 13.3897 17.3923 13.3897C18.8055 13.3897 19.9517 14.6111 19.9517 16.1186C19.9517 17.626 18.8055 18.8475 17.3923 18.8475C15.9783 18.8475 14.8328 17.626 14.8328 16.1186C14.8328 16.1136 14.8344 16.1086 14.8344 16.1027H13.1227V16.1052C13.1227 18.6165 15.0346 20.6526 17.393 20.6526C19.7515 20.6526 21.6634 18.6165 21.6634 16.1052C21.6634 13.5939 19.7515 11.5579 17.393 11.5579ZM19.6924 3.59998V5.32208C20.5103 5.42159 21.1479 6.13534 21.1479 7.01129C21.1479 7.95617 20.4101 8.72086 19.5001 8.72086L19.3992 8.72007C19.388 8.71851 19.3814 8.70754 19.3702 8.70754H17.8471H17.3439C17.2177 8.70754 17.116 8.81566 17.116 8.94807V10.1805C17.116 10.3137 17.2184 10.421 17.3439 10.421H19.3695C19.3821 10.421 19.3895 10.4093 19.4021 10.4069C19.4348 10.4077 19.4652 10.4171 19.4986 10.4171C21.3224 10.4171 22.8002 8.88696 22.8002 6.99797C22.8009 5.17871 21.424 3.70575 19.6924 3.59998ZM4.84102 10.421H13.57C13.5842 10.421 13.5925 10.4077 13.606 10.4054C13.6675 10.4085 13.7267 10.4179 13.789 10.4179C15.6262 10.4179 17.116 8.89185 17.116 7.00894C17.116 5.12681 15.6262 3.59998 13.789 3.59998C12.2422 3.59998 10.9534 4.68699 10.5805 6.152H12.3622C12.651 5.64332 13.1821 5.29741 13.7973 5.29741C14.7177 5.29741 15.4641 6.06357 15.4641 7.00894C15.4641 7.95431 14.7177 8.72124 13.7973 8.72124C13.789 8.72124 13.7807 8.7189 13.7725 8.7189H13.5932C13.5842 8.71811 13.579 8.70872 13.57 8.70872H4.84102C4.71349 8.70872 4.61072 8.81672 4.61072 8.94898V10.18C4.61072 10.3138 4.71424 10.421 4.84102 10.421Z" fill="#7DAFFF"/>
</g>
<defs>
<clipPath id="clip0_265_1717">
<rect width="24" height="24" fill="white"/>
</clipPath>
</defs>
</svg>
